<svg width="95" height="37" viewBox="0 0 95 37" fill="none" xmlns="http://www.w3.org/2000/svg">
<path d="M12.4 14.95C17.4 14.95 21.0667 15.9 23.4 17.8C25.7667 19.6667 26.95 22.2333 26.95 25.5C26.95 27.5667 26.45 29.4333 25.45 31.1C24.4833 32.7333 23 34.0333 21 35C19.0333 35.9333 16.6 36.4 13.7 36.4C11.2333 36.4 8.85 36.0333 6.55 35.3C4.25 34.5333 2.35 33.4833 0.85 32.15L3.15 28.2C4.35 29.3333 5.88333 30.25 7.75 30.95C9.61667 31.6167 11.5833 31.95 13.65 31.95C16.2833 31.95 18.3167 31.4 19.75 30.3C21.2167 29.1667 21.95 27.6333 21.95 25.7C21.95 23.6 21.15 22.0167 19.55 20.95C17.95 19.85 15.2167 19.3 11.35 19.3H3.4L5.25 0.999998H25V5.35H9.45L8.5 14.95H12.4ZM45.4109 36.4C42.6443 36.4 40.1776 35.7 38.0109 34.3C35.8776 32.8667 34.1943 30.8 32.9609 28.1C31.7276 25.4 31.1109 22.2 31.1109 18.5C31.1109 14.8 31.7276 11.6 32.9609 8.9C34.1943 6.2 35.8776 4.15 38.0109 2.75C40.1776 1.31667 42.6443 0.6 45.4109 0.6C48.1443 0.6 50.5776 1.31667 52.7109 2.75C54.8776 4.15 56.5776 6.2 57.8109 8.9C59.0443 11.6 59.6609 14.8 59.6609 18.5C59.6609 22.2 59.0443 25.4 57.8109 28.1C56.5776 30.8 54.8776 32.8667 52.7109 34.3C50.5776 35.7 48.1443 36.4 45.4109 36.4ZM45.4109 31.95C48.2109 31.95 50.4443 30.8 52.1109 28.5C53.8109 26.2 54.6609 22.8667 54.6609 18.5C54.6609 14.1333 53.8109 10.8 52.1109 8.5C50.4443 6.2 48.2109 5.05 45.4109 5.05C42.5776 5.05 40.3109 6.2 38.6109 8.5C36.9443 10.8 36.1109 14.1333 36.1109 18.5C36.1109 22.8667 36.9443 26.2 38.6109 28.5C40.3109 30.8 42.5776 31.95 45.4109 31.95ZM94.9105 27.4H88.2605V36H83.4105V27.4H63.9605V23.9L81.8605 0.999998H87.2605L70.1105 23.1H83.5605V15.5H88.2605V23.1H94.9105V27.4Z" fill="#0C1A27"/>
</svg>
